<svg version="1.1" id="Layer_1" xmlns="http://www.w3.org/2000/svg" xmlns:xlink="http://www.w3.org/1999/xlink" x="0px" y="0px"
	 width="100%" viewBox="0 0 300 56" enable-background="new 0 0 300 56" xml:space="preserve">
<path fill="#FDFCFC" opacity="1.000000" stroke="none" 
	d="
M1.000000,11.000000 
	C1.000000,7.671038 1.000000,4.342076 1.000000,1.046393 
	C101.000008,1.046393 201.000015,1.046393 301.000000,1.046393 
	C301.000000,8.749395 301.000000,16.406006 300.689514,24.437656 
	C299.579315,24.508327 298.779572,24.203959 297.873108,23.683876 
	C297.554749,23.207001 297.284149,23.043383 296.700531,22.972912 
	C296.277527,22.979534 296.108521,22.990555 295.620544,23.000668 
	C294.876312,22.997574 294.451019,22.995392 293.960907,22.790005 
	C293.896057,22.586802 293.926270,22.161272 293.834076,21.854830 
	C292.853149,20.375299 291.964386,19.202209 291.049194,17.684502 
	C286.684601,14.860236 282.346497,12.380589 277.971863,9.573376 
	C277.469482,8.420510 277.003693,7.595212 276.087189,5.971375 
	C275.994476,7.767570 275.953827,8.554770 275.551544,9.247273 
	C274.944275,10.197550 274.698700,11.242524 274.413910,12.454202 
	C270.268799,8.654356 270.843384,14.356591 268.907135,15.404819 
	C267.833496,14.061706 266.845215,12.825379 265.856445,11.588449 
	C264.465912,12.199779 263.273651,12.723940 261.959564,12.981354 
	C261.327515,12.471189 260.817291,12.227773 260.301910,11.711046 
	C260.201721,11.282264 260.106659,11.126790 260.163269,10.671532 
	C261.665588,8.631443 263.016235,6.891138 264.366882,5.150833 
	C263.496033,4.365420 262.625183,3.580008 261.754333,2.794595 
	C260.174316,5.178352 258.594299,7.562110 256.659485,9.936945 
	C253.493042,12.005072 250.681351,14.082123 247.869659,16.159172 
	C248.029053,16.442051 248.188446,16.724928 248.347839,17.007805 
	C249.508820,16.734638 250.669800,16.461472 251.685013,16.222605 
	C252.527847,17.652523 253.245972,18.870865 253.685669,20.351315 
	C250.931137,21.044703 248.455017,21.475983 245.973938,21.944500 
	C245.968994,21.981735 245.899597,21.952997 245.564423,21.956669 
	C244.478302,22.332157 243.727341,22.703976 242.590912,23.014973 
	C231.506134,18.892979 224.186584,21.063570 217.485184,30.284870 
	C212.948624,21.052032 207.610596,19.003805 198.255295,22.868589 
	C197.609955,23.135183 196.834778,23.362568 196.171097,23.263994 
	C192.533081,22.723640 188.911011,22.075827 185.044830,21.424736 
	C184.002792,15.765076 180.010178,11.621611 173.845215,10.329024 
	C165.779327,8.637881 157.845810,8.887540 151.646820,16.113363 
	C151.319107,16.574409 151.200485,16.887094 151.068634,17.427826 
	C151.055389,17.655869 150.783966,18.023365 150.578125,18.194157 
	C150.297241,18.706573 150.222198,19.048197 150.166565,19.722244 
	C150.064987,20.707796 149.943985,21.360922 149.606415,22.206059 
	C149.512177,23.256464 149.634521,24.114861 149.861343,25.326580 
	C150.030243,26.657955 150.094650,27.636005 150.083710,28.991772 
	C148.576508,32.524078 150.079193,33.318314 153.256042,33.156269 
	C155.382843,34.264000 157.196442,35.233303 159.177063,36.403976 
	C159.674362,36.691212 160.004654,36.777081 160.680786,36.850258 
	C161.695374,36.992382 162.364151,37.147202 163.212326,37.489895 
	C163.727615,37.733128 164.063492,37.788483 164.735794,37.815086 
	C165.724716,37.938404 166.377197,38.090473 167.229523,38.458080 
	C167.997955,38.759174 168.566559,38.844730 169.458649,38.904465 
	C170.194946,38.993507 170.607773,39.108379 171.203125,39.425766 
	C171.735870,39.696545 172.086121,39.764816 172.721344,39.816601 
	C173.343903,39.959930 173.681473,40.119743 174.122009,40.458729 
	C174.417130,40.854168 174.656769,40.979904 174.968842,41.003967 
	C174.993744,40.992825 174.989716,41.047226 175.064209,41.246891 
	C175.290115,41.701225 175.504166,41.881573 175.907806,42.381889 
	C175.810776,43.545906 175.586761,44.315643 175.296722,45.116737 
	C175.230698,45.148094 175.070206,45.385742 174.882935,45.621651 
	C174.505508,45.922100 174.315369,45.986645 173.900726,46.087532 
	C173.377563,46.239815 173.161499,46.443398 172.748047,46.884689 
	C172.049316,47.058685 171.630585,47.082615 170.826050,47.057442 
	C168.623688,47.019974 166.807098,47.031616 164.722351,47.053669 
	C164.296768,46.978970 164.139389,46.893856 163.821609,46.602989 
	C163.332733,46.308407 163.004257,46.219582 162.474609,46.097374 
	C162.273438,46.063992 162.024292,45.741085 162.023041,45.390549 
	C161.381119,44.021519 160.740448,43.003021 159.922791,41.677311 
	C159.127106,41.033611 158.508377,40.697124 157.799927,40.282211 
	C157.457428,40.117935 157.251465,40.184734 156.663025,40.526253 
	C153.746918,41.751179 148.589249,38.114697 149.140137,44.887535 
	C149.298996,45.413151 149.474167,45.687969 149.795044,46.267521 
	C150.332138,47.620304 150.723495,48.668358 151.154678,49.988838 
	C151.452499,50.510155 151.710480,50.759052 152.199036,51.132946 
	C152.610397,51.551880 152.791199,51.845814 153.072968,52.339539 
	C153.363998,52.786682 153.610962,52.945629 154.239883,53.128517 
	C156.709946,54.493904 158.854980,55.746952 161.000000,57.000000 
	C151.645767,57.000000 142.291550,57.000000 132.467865,56.723804 
	C131.995560,56.263504 131.992722,56.079395 132.139008,55.656013 
	C132.798782,55.216557 133.309418,55.016369 134.044281,54.995789 
	C134.437042,55.266403 134.605560,55.357399 135.063416,55.638393 
	C138.447418,55.828388 141.542130,55.828388 145.256088,55.828388 
	C145.256088,46.382576 145.256088,37.187904 145.397552,27.900406 
	C145.585480,27.705410 145.698853,27.564150 145.666183,27.508263 
	C145.559036,27.324940 145.398804,27.172630 145.182434,26.545567 
	C145.105865,21.012459 145.105865,15.942187 145.105865,10.982775 
	C141.335800,10.982775 138.244354,10.982775 134.560867,10.982775 
	C134.560867,15.123693 134.560867,19.048855 134.319778,22.955097 
	C133.756165,22.933521 133.433929,22.941893 132.746552,22.842121 
	C128.549606,22.501568 124.346741,21.204378 120.991425,22.362564 
	C117.662468,23.511644 115.186943,27.133148 112.421532,29.595188 
	C109.820663,21.895668 102.243317,18.747377 94.665871,22.472279 
	C93.824448,22.885904 92.883560,23.732616 92.136017,23.592577 
	C88.775818,22.963108 85.468788,22.049833 81.969902,21.196817 
	C81.809029,24.469429 81.709648,26.491165 81.545845,29.823397 
	C78.304153,22.086174 72.739380,21.132774 66.664581,21.032001 
	C60.516968,20.930021 55.503948,22.910715 51.906136,28.387980 
	C51.906136,22.641487 51.906136,16.894995 51.906136,11.024904 
	C48.184174,11.024904 44.790180,11.024904 41.051556,11.024904 
	C41.051556,17.019121 41.051556,22.743271 41.051556,29.180656 
	C36.489601,19.733164 20.029572,17.445929 11.901588,28.140087 
	C11.901588,21.994099 11.901588,16.453444 11.901588,11.000000 
	C7.954540,11.000000 4.477270,11.000000 1.000000,11.000000 
M273.802673,6.104040 
	C273.649261,5.521995 273.495850,4.939949 273.342468,4.357902 
	C272.953857,4.553985 272.565216,4.750068 272.176605,4.946150 
	C272.560486,5.481908 272.944397,6.017666 273.802673,6.104040 
M269.620819,3.506844 
	C269.620819,3.506844 269.453491,3.405917 269.453491,3.405917 
	C269.453491,3.405917 269.473907,3.606133 269.620819,3.506844 
M267.639923,3.500431 
	C267.639923,3.500431 267.433441,3.381788 267.433441,3.381788 
	C267.433441,3.381788 267.463531,3.624868 267.639923,3.500431 
z"/>
<path fill="#060606" opacity="1.000000" stroke="none" 
	d="
M133.820068,54.816177 
	C133.309418,55.016369 132.798782,55.216557 131.785797,55.668480 
	C130.522324,56.280144 129.761154,56.640072 129.000000,57.000000 
	C127.285645,57.000000 125.571281,57.000000 123.253433,56.696911 
	C119.334549,53.994682 116.019150,51.595539 112.748268,49.228607 
	C112.748268,50.991619 112.748268,53.269218 112.748268,55.684120 
	C109.237015,55.684120 106.008125,55.684120 102.342690,55.684120 
	C102.342690,48.634819 102.591179,41.823132 102.170944,35.052956 
	C102.063591,33.323421 99.785019,30.332300 98.599297,30.378286 
	C96.589546,30.456230 94.305481,32.173130 92.819893,33.818081 
	C91.915077,34.819965 92.138634,36.975742 92.117691,38.616562 
	C92.045975,44.236462 92.090187,49.857841 92.090187,55.961391 
	C84.720909,55.562946 77.674904,56.671753 70.815964,55.259003 
	C70.843254,54.803310 70.870544,54.347614 70.897827,53.891922 
	C68.931885,54.927948 66.965942,55.963974 65.000000,57.000000 
	C63.285641,57.000000 61.571285,57.000000 59.255283,56.705032 
	C56.530235,55.234859 54.406826,54.059654 52.446556,52.974735 
	C50.222042,58.872185 45.426064,54.520439 41.994694,56.084167 
	C41.784626,53.809212 41.630932,52.144794 41.535793,51.114498 
	C37.897034,53.147182 34.448517,55.073593 31.000000,57.000000 
	C28.299986,57.000000 25.599974,57.000000 22.278572,56.685326 
	C18.463316,54.872719 15.269447,53.374783 12.101450,51.888985 
	C12.010317,52.776802 11.896011,53.890381 11.610321,55.080009 
	C11.222495,55.302883 11.078144,55.501976 10.558052,55.836029 
	C7.073479,55.945808 4.036740,55.972904 1.000000,56.000000 
	C1.000000,55.555553 1.000000,55.111111 1.294257,54.037239 
	C1.703143,41.499565 1.830616,29.591385 1.892142,17.682861 
	C1.895032,17.123459 1.310800,16.561024 1.000000,16.000000 
	C1.000000,14.611111 1.000000,13.222222 1.000000,11.416666 
	C4.477270,11.000000 7.954540,11.000000 11.901588,11.000000 
	C11.901588,16.453444 11.901588,21.994099 11.901588,28.140087 
	C20.029572,17.445929 36.489601,19.733164 41.051556,29.180656 
	C41.051556,22.743271 41.051556,17.019121 41.051556,11.024904 
	C44.790180,11.024904 48.184174,11.024904 51.906136,11.024904 
	C51.906136,16.894995 51.906136,22.641487 51.906136,28.387980 
	C55.503948,22.910715 60.516968,20.930021 66.664581,21.032001 
	C72.739380,21.132774 78.304153,22.086174 81.545845,29.823397 
	C81.709648,26.491165 81.809029,24.469429 81.969902,21.196817 
	C85.468788,22.049833 88.775818,22.963108 92.136017,23.592577 
	C92.883560,23.732616 93.824448,22.885904 94.665871,22.472279 
	C102.243317,18.747377 109.820663,21.895668 112.421532,29.595188 
	C115.186943,27.133148 117.662468,23.511644 120.991425,22.362564 
	C124.346741,21.204378 128.549606,22.501568 132.850800,23.084806 
	C133.733917,23.289112 134.147400,23.131567 134.560867,22.974018 
	C134.560867,19.048855 134.560867,15.123693 134.560867,10.982775 
	C138.244354,10.982775 141.335800,10.982775 145.105865,10.982775 
	C145.105865,15.942187 145.105865,21.012459 145.100006,26.791533 
	C145.148132,27.664637 145.202118,27.828936 145.256088,27.993237 
	C145.256088,37.187904 145.256088,46.382576 145.256088,55.828388 
	C141.542130,55.828388 138.447418,55.828388 135.136353,55.399063 
	C134.821564,54.735966 134.723129,54.502197 134.624710,54.268425 
	C134.356491,54.451008 134.088287,54.633591 133.820068,54.816177 
M61.042015,33.972858 
	C58.090923,33.972858 55.139832,33.972858 52.223328,33.972858 
	C52.223328,36.325825 52.223328,38.031712 52.223328,39.251930 
	C55.543758,37.785500 58.773506,36.359116 62.825195,35.026783 
	C63.969425,34.854740 65.164612,34.835438 66.245880,34.474693 
	C67.849274,33.939751 69.371933,33.162846 70.928963,32.488937 
	C70.574142,31.782785 70.275810,30.508541 69.854942,30.466688 
	C67.795380,30.261887 65.621597,30.059931 63.662079,30.550938 
	C62.862381,30.751322 62.502033,32.705067 61.042015,33.972858 
M21.002771,42.283382 
	C18.001661,40.718391 15.000552,39.153400 12.303921,37.747185 
	C12.303921,39.586475 12.303921,41.636578 12.303921,43.803547 
	C15.119326,43.803547 17.576162,43.803547 20.687803,44.124046 
	C23.334467,49.307911 28.035364,50.109219 32.395718,45.165619 
	C28.440035,44.308327 24.989220,43.560455 21.002771,42.283382 
M124.043213,45.358673 
	C128.516800,49.450436 133.551620,48.250744 134.631989,42.532192 
	C135.129349,39.899532 135.010452,36.741901 133.958344,34.357361 
	C133.150940,32.527420 130.413773,30.429537 128.590103,30.479219 
	C126.731041,30.529867 123.769264,32.796452 123.374077,34.559826 
	C122.660439,37.744125 123.498566,41.276199 124.043213,45.358673 
M30.930765,32.123234 
	C28.383240,28.005003 25.343040,28.851162 20.972895,31.380688 
	C28.359282,34.083500 34.787464,36.435692 41.069572,38.734428 
	C41.069572,37.763241 41.069572,35.825848 41.069572,33.617832 
	C39.389507,33.617832 37.743671,33.711086 36.113449,33.591496 
	C34.496605,33.472881 32.895493,33.139874 30.930765,32.123234 
M63.117981,48.639748 
	C69.325981,48.705719 71.490707,46.460426 70.290909,41.199341 
	C68.367989,41.578789 66.367462,41.739506 64.539917,42.387825 
	C61.638340,43.417156 59.950855,45.152218 63.117981,48.639748 
z"/>
<path fill="#D12B32" opacity="1.000000" stroke="none" 
	d="
M175.362732,45.085373 
	C175.586761,44.315643 175.810776,43.545906 175.919342,42.134918 
	C175.641449,41.146175 175.370056,40.997364 174.989716,41.047226 
	C174.989716,41.047226 174.993744,40.992825 174.896759,40.795280 
	C174.605911,40.328781 174.345673,40.222721 174.019043,40.279560 
	C173.681473,40.119743 173.343903,39.959930 172.546783,39.599503 
	C171.731705,39.340343 171.376144,39.281799 171.020599,39.223251 
	C170.607773,39.108379 170.194946,38.993507 169.256897,38.689476 
	C168.164352,38.414391 167.597015,38.328468 167.029694,38.242546 
	C166.377197,38.090473 165.724716,37.938404 164.562439,37.613918 
	C163.712738,37.395012 163.372818,37.348515 163.032913,37.302021 
	C162.364151,37.147202 161.695374,36.992382 160.529617,36.626442 
	C159.691772,36.344410 159.350906,36.273506 159.010056,36.202606 
	C157.196442,35.233303 155.382843,34.264000 153.142029,32.851334 
	C151.862900,31.143326 151.010986,29.878693 150.159058,28.614056 
	C150.094650,27.636005 150.030243,26.657955 149.936768,24.960636 
	C149.879471,23.498928 149.851227,22.756487 149.822983,22.014048 
	C149.943985,21.360922 150.064987,20.707796 150.374985,19.551022 
	C150.637314,18.706036 150.710632,18.364700 150.783966,18.023365 
	C150.783966,18.023365 151.055389,17.655869 151.295197,17.295357 
	C151.641983,16.611565 151.748947,16.288284 151.855927,15.965004 
	C157.845810,8.887540 165.779327,8.637881 173.845215,10.329024 
	C180.010178,11.621611 184.002792,15.765076 185.044830,21.424736 
	C188.911011,22.075827 192.533081,22.723640 196.171097,23.263994 
	C196.834778,23.362568 197.609955,23.135183 198.255295,22.868589 
	C207.610596,19.003805 212.948624,21.052032 217.485184,30.284870 
	C224.186584,21.063570 231.506134,18.892979 242.783920,23.298098 
	C244.127090,24.078068 244.891769,24.514093 245.899597,25.088755 
	C245.899597,23.791471 245.899597,22.872234 245.899597,21.952997 
	C245.899597,21.952997 245.968994,21.981735 246.433319,21.971317 
	C250.011032,21.960901 253.124420,21.960901 256.430511,21.960901 
	C257.721558,27.844967 258.913025,33.275314 260.104492,38.705666 
	C260.365265,38.718815 260.626007,38.731960 260.886780,38.745110 
	C262.222809,33.255924 263.558838,27.766739 264.901062,22.252239 
	C266.743011,22.080336 268.378510,21.927704 270.389557,21.850847 
	C271.522339,21.855103 272.279572,21.783581 273.343445,21.817215 
	C274.072021,22.015072 274.493896,22.107775 274.958221,22.591208 
	C276.081970,28.029835 277.163300,33.077732 278.244629,38.125626 
	C278.653381,38.011551 279.062134,37.897472 279.470886,37.783394 
	C280.728424,32.599316 281.985931,27.415239 283.260406,22.161272 
	C287.014374,22.161272 290.470306,22.161272 293.926270,22.161272 
	C293.926270,22.161272 293.896057,22.586802 293.765442,23.085686 
	C293.144592,25.391203 292.654388,27.197836 292.001526,29.350815 
	C290.502808,34.657940 289.166779,39.618717 287.583374,44.823479 
	C286.983521,46.385883 286.631073,47.704296 286.133362,49.368858 
	C285.320251,51.793926 284.652435,53.872852 283.532349,55.942421 
	C280.124725,55.933067 277.169373,55.933067 274.111847,55.933067 
	C272.653076,49.531414 271.302521,43.604610 269.951935,37.677807 
	C268.116730,42.729954 267.114349,47.743717 265.908752,52.708118 
	C265.635925,53.831394 264.883667,55.350803 263.964386,55.718468 
	C259.217773,57.616848 255.037140,55.421947 253.627808,50.598164 
	C252.919418,48.173584 252.185684,45.756416 251.463409,43.335899 
	C249.796814,51.011871 243.993729,54.097801 238.000000,57.000000 
	C235.299988,57.000000 232.599976,57.000000 229.320709,56.674892 
	C224.855377,53.806866 220.969269,51.263943 217.160828,48.771839 
	C217.070267,50.463039 216.935333,52.982681 216.795502,55.593777 
	C213.379257,55.593777 210.323624,55.593777 206.847702,55.593777 
	C206.847702,48.682209 207.133728,42.046608 206.666641,35.464443 
	C206.533234,33.584663 204.541412,30.833532 202.827988,30.289686 
	C199.786606,29.324341 197.450409,31.392815 196.769104,34.626934 
	C196.431000,36.231911 196.433762,37.919350 196.384308,39.572536 
	C196.220840,45.036827 196.103806,50.502514 195.517944,55.942551 
	C192.170197,55.917435 189.273499,55.917435 186.339111,55.917435 
	C186.168320,53.248772 186.047745,51.364735 185.966721,50.098675 
	C181.938400,52.421848 177.969193,54.710922 174.000000,57.000000 
	C169.975449,57.000000 165.950912,57.000000 161.463181,57.000000 
	C158.854980,55.746952 156.709946,54.493904 154.167450,52.904892 
	C153.583572,52.277866 153.317581,52.134804 152.971985,52.139748 
	C152.791199,51.845814 152.610397,51.551880 152.163879,50.857918 
	C151.637070,50.210732 151.375946,49.963573 151.114838,49.716412 
	C150.723495,48.668358 150.332138,47.620304 149.824905,46.013664 
	C149.524826,45.182297 149.340637,44.909519 149.156433,44.636742 
	C148.589249,38.114697 153.746918,41.751179 156.868332,40.625595 
	C157.502945,40.602863 157.889648,40.360634 157.889648,40.360634 
	C158.508377,40.697124 159.127106,41.033611 159.866089,42.005562 
	C160.665665,43.674377 161.344971,44.707733 162.024292,45.741085 
	C162.024292,45.741085 162.273438,46.063992 162.618011,46.325375 
	C163.302399,46.660755 163.642197,46.734753 163.981995,46.808746 
	C164.139389,46.893856 164.296768,46.978970 165.010071,47.270576 
	C167.447937,47.353565 169.329895,47.230057 171.211838,47.106548 
	C171.630585,47.082615 172.049316,47.058685 172.993958,46.904610 
	C173.871872,46.659142 174.073669,46.418049 174.125244,46.051186 
	C174.315369,45.986645 174.505508,45.922100 175.001007,45.682041 
	C175.306351,45.506527 175.490707,45.317009 175.490707,45.317009 
	C175.490707,45.317009 175.362717,45.085373 175.362732,45.085373 
M227.538651,43.509056 
	C229.223785,47.306747 232.187088,48.860916 235.988419,47.286098 
	C241.093597,45.171116 240.499283,40.481941 240.101044,36.154301 
	C239.769562,32.552174 237.697189,30.354433 234.030899,30.095108 
	C230.605743,29.852844 228.096558,31.516537 227.447678,34.871155 
	C226.956757,37.409073 227.284393,40.105324 227.538651,43.509056 
M164.723999,26.975220 
	C172.028732,29.093164 180.127060,29.162758 185.806442,35.683685 
	C185.806442,31.955564 185.806442,28.730177 185.806442,25.349239 
	C183.342453,25.349239 181.177368,25.590303 179.098816,25.269878 
	C177.548920,25.030951 175.265167,24.448931 174.771118,23.357502 
	C172.750366,18.893408 169.074463,18.473774 165.217300,19.142590 
	C163.443100,19.450233 161.929199,21.259197 160.297272,22.387381 
	C161.516998,23.855579 162.736710,25.323778 164.723999,26.975220 
M209.196899,45.103710 
	C209.677902,39.913754 210.158920,34.723801 210.639923,29.533844 
	C209.839600,29.497618 209.039261,29.461393 208.238937,29.425169 
	C207.841919,37.457428 207.850922,45.506851 208.310379,53.710285 
	C209.998474,53.832161 211.238632,54.231483 212.260117,53.918087 
	C213.576935,53.514076 214.718674,52.539448 215.935822,51.810574 
	C214.933609,50.864532 213.941513,49.907490 212.926529,48.975368 
	C211.786713,47.928585 210.626190,46.904316 209.196899,45.103710 
z"/>
<path fill="#FCEDED" opacity="1.000000" stroke="none" 
	d="
M195.968964,55.967663 
	C196.103806,50.502514 196.220840,45.036827 196.384308,39.572536 
	C196.433762,37.919350 196.431000,36.231911 196.769104,34.626934 
	C197.450409,31.392815 199.786606,29.324341 202.827988,30.289686 
	C204.541412,30.833532 206.533234,33.584663 206.666641,35.464443 
	C207.133728,42.046608 206.847702,48.682209 206.847702,55.593777 
	C210.323624,55.593777 213.379257,55.593777 216.795502,55.593777 
	C216.935333,52.982681 217.070267,50.463039 217.160828,48.771839 
	C220.969269,51.263943 224.855377,53.806866 228.870728,56.674892 
	C218.312439,57.000000 207.624878,57.000000 196.463654,56.741837 
	C195.982956,56.311668 195.975952,56.139664 195.968964,55.967663 
z"/>
<path fill="#F9F9F9" opacity="1.000000" stroke="none" 
	d="
M65.468658,57.000000 
	C66.965942,55.963974 68.931885,54.927948 70.897827,53.891922 
	C70.870544,54.347614 70.843254,54.803310 70.815964,55.259003 
	C77.674904,56.671753 84.720909,55.562946 92.090187,55.961391 
	C92.090187,49.857841 92.045975,44.236462 92.117691,38.616562 
	C92.138634,36.975742 91.915077,34.819965 92.819893,33.818081 
	C94.305481,32.173130 96.589546,30.456230 98.599297,30.378286 
	C99.785019,30.332300 102.063591,33.323421 102.170944,35.052956 
	C102.591179,41.823132 102.342690,48.634819 102.342690,55.684120 
	C106.008125,55.684120 109.237015,55.684120 112.748268,55.684120 
	C112.748268,53.269218 112.748268,50.991619 112.748268,49.228607 
	C116.019150,51.595539 119.334549,53.994682 122.824966,56.696911 
	C103.979103,57.000000 84.958214,57.000000 65.468658,57.000000 
z"/>
<path fill="#FDFBFB" opacity="1.000000" stroke="none" 
	d="
M287.830750,44.579498 
	C289.166779,39.618717 290.502808,34.657940 292.398254,29.349781 
	C294.280792,29.003725 295.603943,29.005051 296.948578,29.254890 
	C296.970062,29.503405 296.997711,30.001514 296.798340,30.258884 
	C295.603333,30.987417 294.607697,31.458578 293.965942,31.762259 
	C294.894348,33.461853 295.704834,34.945629 296.818878,36.985046 
	C294.630249,36.985046 293.400024,36.985046 292.203064,36.985046 
	C291.098419,42.784267 294.454132,49.403339 287.025024,53.964035 
	C289.691223,54.907738 291.403137,55.513668 293.708527,56.329659 
	C293.493561,51.931595 298.176361,48.681961 294.243317,44.644661 
	C294.052429,44.448738 294.452637,43.233154 294.881500,42.945553 
	C299.514557,39.838421 298.868683,34.597698 300.374084,30.103699 
	C300.580780,30.058237 301.000000,30.000000 301.000000,30.000000 
	C301.000000,38.908775 301.000000,47.817551 301.000000,57.000000 
	C295.650055,57.000000 290.295471,57.000000 284.469849,56.737896 
	C283.994019,56.301121 283.989319,56.126446 283.984619,55.951775 
	C284.652435,53.872852 285.320251,51.793926 286.489075,49.264481 
	C287.270294,47.402470 287.550537,45.990986 287.830750,44.579498 
z"/>
<path fill="#FCECEB" opacity="1.000000" stroke="none" 
	d="
M283.532349,55.942421 
	C283.989319,56.126446 283.994019,56.301121 283.999390,56.737896 
	C268.979095,57.000000 253.958206,57.000000 238.468658,57.000000 
	C243.993729,54.097801 249.796814,51.011871 251.463409,43.335899 
	C252.185684,45.756416 252.919418,48.173584 253.627808,50.598164 
	C255.037140,55.421947 259.217773,57.616848 263.964386,55.718468 
	C264.883667,55.350803 265.635925,53.831394 265.908752,52.708118 
	C267.114349,47.743717 268.116730,42.729954 269.951935,37.677807 
	C271.302521,43.604610 272.653076,49.531414 274.111847,55.933067 
	C277.169373,55.933067 280.124725,55.933067 283.532349,55.942421 
z"/>
<path fill="#E5E5E5" opacity="1.000000" stroke="none" 
	d="
M31.468657,57.000000 
	C34.448517,55.073593 37.897034,53.147182 41.535793,51.114498 
	C41.630932,52.144794 41.784626,53.809212 41.994694,56.084167 
	C45.426064,54.520439 50.222042,58.872185 52.446556,52.974735 
	C54.406826,54.059654 56.530235,55.234859 58.826820,56.705032 
	C49.979103,57.000000 40.958210,57.000000 31.468657,57.000000 
z"/>
<path fill="#FDEFED" opacity="1.000000" stroke="none" 
	d="
M195.517944,55.942551 
	C195.975952,56.139664 195.982956,56.311668 195.994995,56.741837 
	C188.979050,57.000000 181.958099,57.000000 174.468567,57.000000 
	C177.969193,54.710922 181.938400,52.421848 185.966721,50.098675 
	C186.047745,51.364735 186.168320,53.248772 186.339111,55.917435 
	C189.273499,55.917435 192.170197,55.917435 195.517944,55.942551 
z"/>
<path fill="#F3F3F3" opacity="1.000000" stroke="none" 
	d="
M1.000000,56.500000 
	C4.036740,55.972904 7.073479,55.945808 10.805885,55.890259 
	C11.594935,55.575855 11.688320,55.289906 11.781706,55.003956 
	C11.896011,53.890381 12.010317,52.776802 12.101450,51.888985 
	C15.269447,53.374783 18.463316,54.872719 21.828592,56.685326 
	C15.000000,57.000000 8.000000,57.000000 1.000000,56.500000 
z"/>
<path fill="#111111" opacity="1.000000" stroke="none" 
	d="
M1.000000,16.468658 
	C1.310800,16.561024 1.895032,17.123459 1.892142,17.682861 
	C1.830616,29.591385 1.703143,41.499565 1.294257,53.703907 
	C1.000000,41.645771 1.000000,29.291544 1.000000,16.468658 
z"/>
<path fill="#FCECEB" opacity="1.000000" stroke="none" 
	d="
M301.000000,29.625000 
	C301.000000,30.000000 300.580780,30.058237 300.325073,30.061069 
	C300.069366,30.063900 299.973541,29.976078 299.964752,29.672552 
	C299.316559,28.946424 298.677124,28.523821 297.925537,27.862633 
	C297.535645,27.416655 297.257935,27.209261 296.731720,26.985750 
	C296.220184,26.813627 295.957123,26.657623 295.694061,26.501621 
	C296.119690,26.332294 296.545349,26.162960 297.237549,25.995064 
	C297.681854,25.992598 297.859528,25.988695 298.353882,26.019810 
	C299.447052,26.369884 300.223511,26.684944 301.000000,27.000000 
	C301.000000,27.750000 301.000000,28.500000 301.000000,29.625000 
z"/>
<path fill="#CD797B" opacity="1.000000" stroke="none" 
	d="
M301.000000,26.666668 
	C300.223511,26.684944 299.447052,26.369884 298.302734,25.674686 
	C297.949890,24.829563 297.964874,24.364576 297.979858,23.899591 
	C298.779572,24.203959 299.579315,24.508327 300.689514,24.906347 
	C301.000000,25.444445 301.000000,25.888889 301.000000,26.666668 
z"/>
<path fill="#F5EEEE" opacity="1.000000" stroke="none" 
	d="
M129.375000,57.000000 
	C129.761154,56.640072 130.522324,56.280144 131.636688,55.907749 
	C131.992722,56.079395 131.995560,56.263504 131.999207,56.723804 
	C131.250000,57.000000 130.500000,57.000000 129.375000,57.000000 
z"/>
<path fill="#151515" opacity="1.000000" stroke="none" 
	d="
M278.008423,9.900939 
	C282.346497,12.380589 286.684601,14.860236 290.603363,17.679369 
	C287.059235,17.714289 283.918762,17.519957 280.813446,17.078440 
	C276.519928,16.467981 272.594696,16.699699 269.548645,20.766182 
	C265.193634,16.929211 260.928467,16.799200 256.346313,19.787088 
	C255.743088,20.180441 254.767319,20.002531 253.964081,20.089205 
	C253.245972,18.870865 252.527847,17.652523 251.685013,16.222605 
	C250.669800,16.461472 249.508820,16.734638 248.347839,17.007805 
	C248.188446,16.724928 248.029053,16.442051 247.869659,16.159172 
	C250.681351,14.082123 253.493042,12.005072 256.671204,10.282549 
	C258.028961,10.748490 259.020264,10.859903 260.011566,10.971315 
	C260.106659,11.126790 260.201721,11.282264 260.061096,11.950888 
	C259.252441,13.151855 258.679443,13.839673 258.106445,14.527492 
	C258.295685,14.784581 258.484924,15.041671 258.674133,15.298761 
	C259.809906,14.615210 260.945648,13.931658 262.081390,13.248104 
	C263.273651,12.723940 264.465912,12.199779 265.856445,11.588449 
	C266.845215,12.825379 267.833496,14.061706 268.907135,15.404819 
	C270.843384,14.356591 270.268799,8.654356 274.413910,12.454202 
	C274.698700,11.242524 274.944275,10.197550 275.725769,9.492413 
	C276.843903,9.855144 277.426147,9.878039 278.008423,9.900939 
z"/>
<path fill="#FBF9F8" opacity="1.000000" stroke="none" 
	d="
M269.895752,20.733606 
	C272.594696,16.699699 276.519928,16.467981 280.813446,17.078440 
	C283.918762,17.519957 287.059235,17.714289 290.629822,18.023987 
	C291.964386,19.202209 292.853149,20.375299 293.834076,21.854830 
	C290.470306,22.161272 287.014374,22.161272 283.260406,22.161272 
	C281.985931,27.415239 280.728424,32.599316 279.470886,37.783394 
	C279.062134,37.897472 278.653381,38.011551 278.244629,38.125626 
	C277.163300,33.077732 276.081970,28.029835 274.884338,22.339016 
	C274.190948,21.701418 273.613861,21.706739 273.036774,21.712061 
	C272.279572,21.783581 271.522339,21.855103 270.374146,21.588879 
	C269.953979,21.078625 269.924866,20.906116 269.895752,20.733606 
z"/>
<path fill="#F9ECEB" opacity="1.000000" stroke="none" 
	d="
M269.548645,20.766182 
	C269.924866,20.906116 269.953979,21.078625 269.998535,21.513103 
	C268.378510,21.927704 266.743011,22.080336 264.901062,22.252239 
	C263.558838,27.766739 262.222809,33.255924 260.886780,38.745110 
	C260.626007,38.731960 260.365265,38.718815 260.104492,38.705666 
	C258.913025,33.275314 257.721558,27.844967 256.430511,21.960901 
	C253.124420,21.960901 250.011032,21.960901 246.438263,21.934082 
	C248.455017,21.475983 250.931137,21.044703 253.685669,20.351311 
	C254.767319,20.002531 255.743088,20.180441 256.346313,19.787088 
	C260.928467,16.799200 265.193634,16.929211 269.548645,20.766182 
z"/>
<path fill="#EDEDED" opacity="1.000000" stroke="none" 
	d="
M260.163269,10.671532 
	C259.020264,10.859903 258.028961,10.748490 257.025970,10.291472 
	C258.594299,7.562110 260.174316,5.178352 261.754333,2.794595 
	C262.625183,3.580008 263.496033,4.365420 264.366882,5.150833 
	C263.016235,6.891138 261.665588,8.631443 260.163269,10.671532 
z"/>
<path fill="#FBF9F8" opacity="1.000000" stroke="none" 
	d="
M296.970978,25.993622 
	C296.545349,26.162960 296.119690,26.332294 295.694061,26.501621 
	C295.957123,26.657623 296.220184,26.813627 296.731445,27.319992 
	C296.962128,28.115694 296.944611,28.561033 296.927094,29.006374 
	C295.603943,29.005051 294.280792,29.003725 292.560913,29.003433 
	C292.654388,27.197836 293.144592,25.391203 293.830261,23.288891 
	C294.451019,22.995392 294.876312,22.997574 295.646545,23.294476 
	C296.282654,24.070087 296.573822,24.550983 296.896667,25.271744 
	C296.928314,25.511610 296.970978,25.993618 296.970978,25.993622 
z"/>
<path fill="#F5EEEE" opacity="1.000000" stroke="none" 
	d="
M150.083710,28.991772 
	C151.010986,29.878693 151.862900,31.143326 152.828857,32.712898 
	C150.079193,33.318314 148.576508,32.524078 150.083710,28.991772 
z"/>
<path fill="#F5EEEE" opacity="1.000000" stroke="none" 
	d="
M170.826050,47.057442 
	C169.329895,47.230057 167.447937,47.353565 165.278259,47.260170 
	C166.807098,47.031616 168.623688,47.019974 170.826050,47.057442 
z"/>
<path fill="#F9ECEB" opacity="1.000000" stroke="none" 
	d="
M245.564423,21.956669 
	C245.899597,22.872234 245.899597,23.791471 245.899597,25.088755 
	C244.891769,24.514093 244.127090,24.078068 243.169403,23.358917 
	C243.727341,22.703976 244.478302,22.332157 245.564423,21.956669 
z"/>
<path fill="#EDEDED" opacity="1.000000" stroke="none" 
	d="
M261.959564,12.981356 
	C260.945648,13.931658 259.809906,14.615210 258.674133,15.298761 
	C258.484924,15.041671 258.295685,14.784581 258.106445,14.527492 
	C258.679443,13.839673 259.252441,13.151855 260.066254,12.224197 
	C260.817291,12.227773 261.327515,12.471189 261.959564,12.981356 
z"/>
<path fill="#F5EEEE" opacity="1.000000" stroke="none" 
	d="
M162.023041,45.390549 
	C161.344971,44.707733 160.665665,43.674377 160.043060,42.312775 
	C160.740448,43.003021 161.381119,44.021519 162.023041,45.390549 
z"/>
<path fill="#EDEDED" opacity="1.000000" stroke="none" 
	d="
M273.565491,6.328732 
	C272.944397,6.017666 272.560486,5.481908 272.176605,4.946151 
	C272.565216,4.750068 272.953857,4.553985 273.342468,4.357903 
	C273.495850,4.939949 273.649261,5.521995 273.565491,6.328732 
z"/>
<path fill="#EDEDED" opacity="1.000000" stroke="none" 
	d="
M277.971863,9.573372 
	C277.426147,9.878039 276.843903,9.855144 276.087402,9.587110 
	C275.953827,8.554770 275.994476,7.767570 276.087189,5.971375 
	C277.003693,7.595212 277.469482,8.420510 277.971863,9.573372 
z"/>
<path fill="#F5EEEE" opacity="1.000000" stroke="none" 
	d="
M149.606415,22.206059 
	C149.851227,22.756487 149.879471,23.498928 149.832275,24.607311 
	C149.634521,24.114861 149.512177,23.256464 149.606415,22.206059 
z"/>
<path fill="#FDE5E3" opacity="1.000000" stroke="none" 
	d="
M297.237549,25.995058 
	C296.970978,25.993618 296.928314,25.511610 296.933167,24.930632 
	C296.943512,23.892206 296.949005,23.434757 296.954529,22.977310 
	C297.284149,23.043383 297.554749,23.207001 297.873108,23.683876 
	C297.964874,24.364576 297.949890,24.829563 297.986084,25.639671 
	C297.859528,25.988695 297.681854,25.992598 297.237549,25.995058 
z"/>
<path fill="#F5EEEE" opacity="1.000000" stroke="none" 
	d="
M167.229523,38.458084 
	C167.597015,38.328468 168.164352,38.414391 168.933411,38.715302 
	C168.566559,38.844730 167.997955,38.759174 167.229523,38.458084 
z"/>
<path fill="#F5EEEE" opacity="1.000000" stroke="none" 
	d="
M134.319778,22.955097 
	C134.147400,23.131567 133.733917,23.289112 133.216217,23.203976 
	C133.433929,22.941893 133.756165,22.933521 134.319778,22.955097 
z"/>
<path fill="#FCECEB" opacity="1.000000" stroke="none" 
	d="
M296.700531,22.972912 
	C296.949005,23.434757 296.943512,23.892206 296.901520,24.690765 
	C296.573822,24.550983 296.282654,24.070087 295.965515,23.295385 
	C296.108521,22.990555 296.277527,22.979534 296.700531,22.972912 
z"/>
<path fill="#EDEDED" opacity="1.000000" stroke="none" 
	d="
M269.547363,3.556489 
	C269.473907,3.606133 269.453491,3.405917 269.453491,3.405917 
	C269.453491,3.405917 269.620819,3.506844 269.547363,3.556489 
z"/>
<path fill="#F5EEEE" opacity="1.000000" stroke="none" 
	d="
M150.578125,18.194157 
	C150.710632,18.364700 150.637314,18.706036 150.355560,19.218596 
	C150.222198,19.048197 150.297241,18.706573 150.578125,18.194157 
z"/>
<path fill="#F5EEEE" opacity="1.000000" stroke="none" 
	d="
M151.154678,49.988838 
	C151.375946,49.963573 151.637070,50.210732 151.933319,50.732918 
	C151.710480,50.759052 151.452499,50.510155 151.154678,49.988838 
z"/>
<path fill="#F5EEEE" opacity="1.000000" stroke="none" 
	d="
M151.646820,16.113363 
	C151.748947,16.288284 151.641983,16.611565 151.308441,17.067314 
	C151.200485,16.887094 151.319107,16.574409 151.646820,16.113363 
z"/>
<path fill="#EDEDED" opacity="1.000000" stroke="none" 
	d="
M267.551727,3.562649 
	C267.463531,3.624868 267.433441,3.381788 267.433441,3.381788 
	C267.433441,3.381788 267.639923,3.500431 267.551727,3.562649 
z"/>
<path fill="#F5EEEE" opacity="1.000000" stroke="none" 
	d="
M153.072968,52.339539 
	C153.317581,52.134804 153.583572,52.277866 153.842407,52.792553 
	C153.610962,52.945629 153.363998,52.786682 153.072968,52.339539 
z"/>
<path fill="#F5EEEE" opacity="1.000000" stroke="none" 
	d="
M159.177063,36.403973 
	C159.350906,36.273506 159.691772,36.344410 160.183792,36.639130 
	C160.004654,36.777081 159.674362,36.691212 159.177063,36.403973 
z"/>
<path fill="#F5EEEE" opacity="1.000000" stroke="none" 
	d="
M173.900726,46.087532 
	C174.073669,46.418049 173.871872,46.659142 173.273941,46.754547 
	C173.161499,46.443398 173.377563,46.239815 173.900726,46.087532 
z"/>
<path fill="#F5EEEE" opacity="1.000000" stroke="none" 
	d="
M163.821609,46.602989 
	C163.642197,46.734753 163.302399,46.660755 162.819183,46.358757 
	C163.004257,46.219582 163.332733,46.308407 163.821609,46.602989 
z"/>
<path fill="#F5EEEE" opacity="1.000000" stroke="none" 
	d="
M175.296707,45.116734 
	C175.362717,45.085373 175.490707,45.317009 175.490707,45.317009 
	C175.490707,45.317009 175.306351,45.506527 175.188278,45.446136 
	C175.070206,45.385742 175.230698,45.148094 175.296707,45.116734 
z"/>
<path fill="#F5EEEE" opacity="1.000000" stroke="none" 
	d="
M149.140137,44.887535 
	C149.340637,44.909519 149.524826,45.182297 149.679169,45.708931 
	C149.474167,45.687969 149.298996,45.413151 149.140137,44.887535 
z"/>
<path fill="#F5EEEE" opacity="1.000000" stroke="none" 
	d="
M145.397552,27.900406 
	C145.202118,27.828936 145.148132,27.664637 145.176575,27.254368 
	C145.398804,27.172630 145.559036,27.324940 145.666183,27.508263 
	C145.698853,27.564150 145.585480,27.705410 145.397552,27.900406 
z"/>
<path fill="#F5EEEE" opacity="1.000000" stroke="none" 
	d="
M175.064209,41.246891 
	C175.370056,40.997364 175.641449,41.146175 175.792358,41.740631 
	C175.504166,41.881573 175.290115,41.701225 175.064209,41.246891 
z"/>
<path fill="#F5EEEE" opacity="1.000000" stroke="none" 
	d="
M174.122009,40.458729 
	C174.345673,40.222721 174.605911,40.328781 174.871857,40.806423 
	C174.656769,40.979904 174.417130,40.854168 174.122009,40.458729 
z"/>
<path fill="#F5EEEE" opacity="1.000000" stroke="none" 
	d="
M157.799927,40.282207 
	C157.889648,40.360634 157.502945,40.602863 157.297638,40.503521 
	C157.251465,40.184734 157.457428,40.117935 157.799927,40.282207 
z"/>
<path fill="#F5EEEE" opacity="1.000000" stroke="none" 
	d="
M171.203125,39.425766 
	C171.376144,39.281799 171.731705,39.340343 172.261810,39.615990 
	C172.086121,39.764816 171.735870,39.696545 171.203125,39.425766 
z"/>
<path fill="#F5EEEE" opacity="1.000000" stroke="none" 
	d="
M163.212326,37.489895 
	C163.372818,37.348515 163.712738,37.395012 164.226013,37.642673 
	C164.063492,37.788483 163.727615,37.733128 163.212326,37.489895 
z"/>
<path fill="#F4F4F4" opacity="1.000000" stroke="none" 
	d="
M123.865936,45.010857 
	C123.498566,41.276199 122.660439,37.744125 123.374077,34.559826 
	C123.769264,32.796452 126.731041,30.529867 128.590103,30.479219 
	C130.413773,30.429537 133.150940,32.527420 133.958344,34.357361 
	C135.010452,36.741901 135.129349,39.899532 134.631989,42.532192 
	C133.551620,48.250744 128.516800,49.450436 123.865936,45.010857 
z"/>
<path fill="#ECECEC" opacity="1.000000" stroke="none" 
	d="
M31.109123,32.512062 
	C32.895493,33.139874 34.496605,33.472881 36.113449,33.591496 
	C37.743671,33.711086 39.389507,33.617832 41.069572,33.617832 
	C41.069572,35.825848 41.069572,37.763241 41.069572,38.734428 
	C34.787464,36.435692 28.359282,34.083500 20.972895,31.380688 
	C25.343040,28.851162 28.383240,28.005003 31.109123,32.512062 
z"/>
<path fill="#E9E9E9" opacity="1.000000" stroke="none" 
	d="
M62.801369,48.433289 
	C59.950855,45.152218 61.638340,43.417156 64.539917,42.387825 
	C66.367462,41.739506 68.367989,41.578789 70.290955,41.199562 
	C71.490707,46.460426 69.325981,48.705719 62.801369,48.433289 
z"/>
<path fill="#E8E8E8" opacity="1.000000" stroke="none" 
	d="
M21.538404,42.812580 
	C24.989220,43.560455 28.440035,44.308327 32.395718,45.165619 
	C28.035364,50.109219 23.334467,49.307911 20.561531,43.732079 
	C20.802973,43.164272 21.170689,42.988426 21.538404,42.812580 
z"/>
<path fill="#EDEDED" opacity="1.000000" stroke="none" 
	d="
M61.941803,33.861111 
	C62.502033,32.705067 62.862381,30.751322 63.662079,30.550938 
	C65.621597,30.059931 67.795380,30.261887 69.854942,30.466688 
	C70.275810,30.508541 70.574142,31.782785 70.928963,32.488937 
	C69.371933,33.162846 67.849274,33.939751 66.245880,34.474693 
	C65.164612,34.835438 63.969425,34.854740 62.404732,34.711517 
	C61.970112,34.217865 61.955956,34.039486 61.941803,33.861111 
z"/>
<path fill="#E3E3E3" opacity="1.000000" stroke="none" 
	d="
M21.270588,42.547981 
	C21.170689,42.988426 20.802973,43.164272 20.234127,43.571831 
	C17.576162,43.803547 15.119326,43.803547 12.303921,43.803547 
	C12.303921,41.636578 12.303921,39.586475 12.303921,37.747185 
	C15.000552,39.153400 18.001661,40.718391 21.270588,42.547981 
z"/>
<path fill="#E2E2E2" opacity="1.000000" stroke="none" 
	d="
M61.491909,33.916985 
	C61.955956,34.039486 61.970112,34.217865 61.993759,34.664490 
	C58.773506,36.359116 55.543758,37.785500 52.223328,39.251930 
	C52.223328,38.031712 52.223328,36.325825 52.223328,33.972858 
	C55.139832,33.972858 58.090923,33.972858 61.491909,33.916985 
z"/>
<path fill="#FDFCFC" opacity="1.000000" stroke="none" 
	d="
M134.044281,54.995789 
	C134.088287,54.633591 134.356491,54.451008 134.624710,54.268425 
	C134.723129,54.502197 134.821564,54.735966 134.847046,55.209068 
	C134.605560,55.357399 134.437042,55.266403 134.044281,54.995789 
z"/>
<path fill="#111111" opacity="1.000000" stroke="none" 
	d="
M11.610321,55.080009 
	C11.688320,55.289906 11.594935,55.575855 11.253718,55.807571 
	C11.078144,55.501976 11.222495,55.302883 11.610321,55.080009 
z"/>
<path fill="#FCF3F3" opacity="1.000000" stroke="none" 
	d="
M227.393188,43.120087 
	C227.284393,40.105324 226.956757,37.409073 227.447678,34.871155 
	C228.096558,31.516537 230.605743,29.852844 234.030899,30.095108 
	C237.697189,30.354433 239.769562,32.552174 240.101044,36.154301 
	C240.499283,40.481941 241.093597,45.171116 235.988419,47.286098 
	C232.187088,48.860916 229.223785,47.306747 227.393188,43.120087 
z"/>
<path fill="#FBECEB" opacity="1.000000" stroke="none" 
	d="
M164.340210,26.883598 
	C162.736710,25.323778 161.516998,23.855579 160.297272,22.387384 
	C161.929199,21.259197 163.443100,19.450233 165.217300,19.142590 
	C169.074463,18.473774 172.750366,18.893408 174.771118,23.357502 
	C175.265167,24.448931 177.548920,25.030951 179.098816,25.269878 
	C181.177368,25.590303 183.342453,25.349239 185.806442,25.349239 
	C185.806442,28.730177 185.806442,31.955564 185.806442,35.683685 
	C180.127060,29.162758 172.028732,29.093164 164.340210,26.883598 
z"/>
<path fill="#DB202B" opacity="1.000000" stroke="none" 
	d="
M209.335785,45.486977 
	C210.626190,46.904316 211.786713,47.928585 212.926529,48.975368 
	C213.941513,49.907490 214.933609,50.864532 215.935822,51.810574 
	C214.718674,52.539448 213.576935,53.514076 212.260117,53.918087 
	C211.238632,54.231483 209.998474,53.832161 208.310379,53.710285 
	C207.850922,45.506851 207.841919,37.457428 208.238937,29.425169 
	C209.039261,29.461393 209.839600,29.497618 210.639923,29.533844 
	C210.158920,34.723801 209.677902,39.913754 209.335785,45.486977 
z"/>
<path fill="#FCECEB" opacity="1.000000" stroke="none" 
	d="
M287.583374,44.823486 
	C287.550537,45.990986 287.270294,47.402470 286.634369,48.918335 
	C286.631073,47.704296 286.983521,46.385883 287.583374,44.823486 
z"/>
<path fill="#F9ECEB" opacity="1.000000" stroke="none" 
	d="
M273.343445,21.817215 
	C273.613861,21.706739 274.190948,21.701418 274.841919,21.948288 
	C274.493896,22.107775 274.072021,22.015072 273.343445,21.817215 
z"/>
<path fill="#FCECEB" opacity="1.000000" stroke="none" 
	d="
M300.118408,30.106531 
	C298.868683,34.597698 299.514557,39.838421 294.881500,42.945553 
	C294.452637,43.233154 294.052429,44.448738 294.243317,44.644661 
	C298.176361,48.681961 293.493561,51.931595 293.708527,56.329659 
	C291.403137,55.513668 289.691223,54.907738 287.025024,53.964035 
	C294.454132,49.403339 291.098419,42.784267 292.203064,36.985046 
	C293.400024,36.985046 294.630249,36.985046 296.818878,36.985046 
	C295.704834,34.945629 294.894348,33.461853 293.965942,31.762259 
	C294.607697,31.458578 295.603333,30.987417 297.091125,30.243923 
	C297.778015,29.956341 297.972839,29.941093 298.468445,29.945757 
	C299.170685,29.969137 299.572113,29.972609 299.973541,29.976078 
	C299.973541,29.976078 300.069366,30.063900 300.118408,30.106531 
z"/>
<path fill="#FDE5E3" opacity="1.000000" stroke="none" 
	d="
M298.167664,29.925846 
	C297.972839,29.941093 297.778015,29.956341 297.290466,29.986551 
	C296.997711,30.001514 296.970062,29.503405 296.948578,29.254890 
	C296.944611,28.561033 296.962128,28.115694 296.979919,27.336109 
	C297.257935,27.209261 297.535645,27.416655 297.913239,28.168621 
	C298.064606,29.117411 298.116119,29.521629 298.167664,29.925846 
z"/>
<path fill="#A36A64" opacity="1.000000" stroke="none" 
	d="
M298.468445,29.945759 
	C298.116119,29.521629 298.064606,29.117411 298.025391,28.407206 
	C298.677124,28.523821 299.316559,28.946424 299.964752,29.672552 
	C299.572113,29.972609 299.170685,29.969137 298.468445,29.945759 
z"/>
</svg>